<?xml version="1.0" encoding="iso-8859-1"?>
<!-- Generator: Adobe Illustrator 19.0.0, SVG Export Plug-In . SVG Version: 6.00 Build 0)  -->
<svg version="1.1" id="Capa_1" xmlns="http://www.w3.org/2000/svg" xmlns:xlink="http://www.w3.org/1999/xlink" x="0px" y="0px"
	 viewBox="0 0 512 512" style="enable-background:new 0 0 512 512;" xml:space="preserve">
<polygon style="fill:#00A5FF;" points="474.17,308.175 474.17,463.045 37.83,463.045 37.83,308.175 147.22,137.155 364.79,137.155 
	"/>
<polygon style="fill:#0087FF;" points="474.17,308.175 474.17,463.045 256,463.045 256,137.155 364.79,137.155 "/>
<path style="fill:#005ED2;" d="M512,169.815v87.39H341.72v-81.07c-27.06-5.39-55.84-8.15-85.72-8.2h-0.75
	c-29.57,0-58.09,2.66-84.97,7.91v81.36H0v-85.45c0-35.07,28.22-67,79.46-89.92c47.41-21.2,110.1-32.88,176.54-32.88
	c65.65,0,127.82,11.44,175.04,32.21c50.84,22.37,79.59,53.64,80.95,88.06L512,169.815z"/>
<path style="fill:#004EB1;" d="M512,169.815v87.39H341.72v-81.07c-27.06-5.39-55.84-8.15-85.72-8.2V48.955
	c65.65,0,127.82,11.44,175.04,32.21c50.84,22.37,79.59,53.64,80.95,88.06L512,169.815z"/>
<rect y="196.42" style="fill:#00459D;" width="170.28" height="60.789"/>
<rect x="341.72" y="196.42" style="fill:#002D6B;" width="170.28" height="60.789"/>
<path style="fill:#00459D;" d="M329.5,326.915c0,40.59-32.91,73.49-73.5,73.49s-73.5-32.9-73.5-73.49s32.91-73.5,73.5-73.5
	S329.5,286.325,329.5,326.915z"/>
<path style="fill:#002D6B;" d="M329.5,326.915c0,40.59-32.91,73.49-73.5,73.49v-146.99C296.59,253.415,329.5,286.325,329.5,326.915z
	"/>
<g>
</g>
<g>
</g>
<g>
</g>
<g>
</g>
<g>
</g>
<g>
</g>
<g>
</g>
<g>
</g>
<g>
</g>
<g>
</g>
<g>
</g>
<g>
</g>
<g>
</g>
<g>
</g>
<g>
</g>
</svg>
