<?xml version="1.0" encoding="iso-8859-1"?>
<!-- Generator: Adobe Illustrator 19.0.0, SVG Export Plug-In . SVG Version: 6.00 Build 0)  -->
<svg version="1.1" id="Capa_1" xmlns="http://www.w3.org/2000/svg" xmlns:xlink="http://www.w3.org/1999/xlink" x="0px" y="0px"
	 viewBox="0 0 512.091 512.091" style="enable-background:new 0 0 512.091 512.091;" xml:space="preserve">
<path style="fill:#FF5722;" d="M355.163,11.221c-5.636-1.716-11.595,1.461-13.311,7.097c-1.365,4.484,0.357,9.335,4.245,11.954
	c42.453,28.864,68.373,106.155,69.995,166.784c-9.677-18.444-23.368-34.482-40.064-46.933c-4.713-3.535-11.399-2.58-14.933,2.133
	c-2.844,3.793-2.844,9.007,0,12.8c38.504,52.122,27.464,125.588-24.657,164.092c-20.175,14.904-44.595,22.95-69.678,22.959
	c-11.911,0.551-23.809-1.337-34.965-5.547c12.16-5.036,23.758-11.336,34.603-18.795c12.378-9.961,27.27-16.303,43.029-18.325
	c5.891-0.002,10.665-4.779,10.664-10.67c0-0.869-0.107-1.735-0.317-2.578c-5.683-18.369-23.15-30.503-42.347-29.419
	c-10.324-0.452-20.351,3.521-27.563,10.923c-5.739,5.12-11.669,10.411-36.437,10.411c-43.648,0-64-25.451-64-42.667
	c0.663-6.385,4.064-12.168,9.323-15.851c4.735-3.356,9.804-6.216,15.125-8.533c4.234,3.996,10.849,3.996,15.083,0
	c6.06-6.685,8.071-16.106,5.269-24.683l57.088-38.059c4.901-3.268,6.225-9.891,2.957-14.792c-1.973-2.958-5.29-4.739-8.845-4.749
	h-21.333c-23.744,0-39.275-4.608-42.667-12.651c-4.885-11.776,11.2-36.864,28.821-54.464c4.171-4.16,4.18-10.914,0.019-15.085
	c-1.99-1.995-4.689-3.122-7.507-3.134c-28.063,2.521-53.371,17.909-68.523,41.664c-16.073-1.457-32.255-1.214-48.277,0.725
	c-3.422-3.852-6.293-8.16-8.533-12.8c-6.984-12.44-11.511-26.107-13.333-40.256c0.011-5.891-4.757-10.675-10.648-10.686
	c-2.84-0.005-5.565,1.123-7.571,3.134C22.698,59.59,16.241,95.409,29.446,126.336c-65.779,125.151-17.649,279.931,107.502,345.71
	c36.744,19.313,77.633,29.4,119.143,29.394c143.552,0,256-107.776,256-245.333v-21.333
	C512.091,104.64,431.025,33.984,355.163,11.221z"/>
<path d="M256.091,501.44C114.706,501.45,0.083,386.843,0.073,245.458c-0.003-41.503,10.085-82.384,29.394-119.122
	C16.273,95.407,22.73,59.595,45.894,35.221c4.172-4.159,10.926-4.149,15.085,0.024c1.993,1.999,3.112,4.706,3.112,7.528
	c1.765,14.153,6.272,27.827,13.269,40.256c2.233,4.644,5.105,8.953,8.533,12.8c16.023-1.928,32.204-2.171,48.277-0.725
	c15.165-23.772,40.501-39.162,68.587-41.664c5.891-0.011,10.675,4.757,10.686,10.648c0.005,2.84-1.123,5.565-3.134,7.571
	c-17.6,17.621-33.685,42.667-28.821,54.464c3.328,8.043,18.859,12.651,42.667,12.651h21.333c5.891,0.005,10.663,4.784,10.658,10.675
	c-0.003,3.563-1.785,6.89-4.749,8.866l-57.173,38.059c2.763,8.555,0.746,17.935-5.291,24.597c-4.234,3.996-10.849,3.996-15.083,0
	c-5.322,2.317-10.39,5.177-15.125,8.533c-5.271,3.706-8.667,9.524-9.301,15.936c0,17.216,20.331,42.667,64,42.667
	c24.768,0,30.699-5.312,36.459-10.432c7.21-7.388,17.228-11.353,27.541-10.901c19.197-1.084,36.664,11.05,42.347,29.419
	c1.426,5.716-2.052,11.505-7.768,12.931c-0.843,0.21-1.709,0.317-2.578,0.317c-15.758,2.027-30.649,8.369-43.029,18.325
	c-10.84,7.471-22.439,13.778-34.603,18.816c11.158,4.199,23.056,6.079,34.965,5.525c64.801-0.034,117.306-52.593,117.272-117.394
	c-0.013-25.112-8.082-49.557-23.022-69.742c-3.535-4.713-2.579-11.399,2.133-14.933c3.793-2.844,9.007-2.844,12.8,0
	c16.692,12.45,30.376,28.489,40.043,46.933c-1.536-60.629-27.435-137.92-69.909-166.805c-4.886-3.291-6.178-9.92-2.887-14.806
	c2.619-3.888,7.469-5.61,11.954-4.245c75.883,22.869,156.949,93.525,156.949,223.659v21.333
	C512.091,393.685,399.643,501.44,256.091,501.44z M49.67,133.483c-18.449,34.44-28.149,72.887-28.245,111.957
	c0.141,129.544,105.122,234.526,234.667,234.667c131.584,0,234.667-98.389,234.667-224v-21.333
	c3.46-73.602-33.063-143.344-95.531-182.421c27.272,45.461,41.845,97.408,42.197,150.421c-0.019,16.878-2.17,33.687-6.4,50.027
	c-1.178,5.1-5.973,8.522-11.179,7.979c-5.175-0.415-9.299-4.494-9.771-9.664c-0.763-8.417-2.43-16.728-4.971-24.789
	c0.171,2.844,0.256,5.689,0.256,8.533c-0.094,76.544-62.122,138.573-138.667,138.667c-25.59,1.365-50.747-7.02-70.4-23.467
	c-4.713-3.535-5.668-10.221-2.133-14.933c2.014-2.686,5.176-4.267,8.533-4.267c19.049-1.745,37.169-9.036,52.117-20.971
	c11.008-7.773,22.994-14.056,35.648-18.688c-4.009-2.13-8.497-3.195-13.035-3.093c-5.078-0.449-10.057,1.596-13.355,5.483
	c-13.842,12.277-32.274,18.046-50.645,15.851c-53.333,0-85.333-32.533-85.333-64c1.708-18.904,14.275-35.08,32.171-41.408
	c4.154-1.808,8.581-2.911,13.099-3.264c-0.348-1.301-0.819-2.565-1.408-3.776c-2.487-4.825-0.953-10.748,3.563-13.76l35.371-23.573
	c-26.752-1.963-42.88-10.325-49.067-25.365c-4.512-16.196-1.206-33.569,8.939-46.976c-8.127,6.865-15.372,14.712-21.568,23.36
	l-1.899,2.624c-3.077,3.982-8.519,5.271-13.056,3.093c-15.384-1.445-30.88-1.187-46.208,0.768
	c-13.312,2.859-23.083-12.331-29.397-24.085c-3.969-7.562-7.378-15.405-10.197-23.467c-6.844,16.471-6.063,35.124,2.133,50.965
	C53.208,124.589,52.841,129.873,49.67,133.483z"/>
<g>
</g>
<g>
</g>
<g>
</g>
<g>
</g>
<g>
</g>
<g>
</g>
<g>
</g>
<g>
</g>
<g>
</g>
<g>
</g>
<g>
</g>
<g>
</g>
<g>
</g>
<g>
</g>
<g>
</g>
</svg>
